<?xml version="1.0" encoding="utf-8"?>
<!-- Generator: Adobe Illustrator 27.6.1, SVG Export Plug-In . SVG Version: 6.00 Build 0)  -->
<svg version="1.1" id="Layer_1" xmlns="http://www.w3.org/2000/svg" xmlns:xlink="http://www.w3.org/1999/xlink" x="0px" y="0px"
	 viewBox="0 0 1315.5 344.4" style="enable-background:new 0 0 1315.5 344.4;" xml:space="preserve">
<style type="text/css">
	.st0{fill:#00599C;}
	.st1{fill:#004482;}
	.st2{fill:#659AD2;}
	.st3{fill:#FFFFFF;}
</style>
<path class="st0" d="M302.1,258.3c2.4-4.2,3.9-8.8,3.9-13.1V99.1c0-4.2-1.5-8.9-3.9-13.1L153,172.2L302.1,258.3z"/>
<path class="st1" d="M166.2,341.2l126.5-73c3.6-2.1,7-5.7,9.4-9.9L153,172.2L3.9,258.3c2.4,4.2,5.7,7.8,9.4,9.9l126.5,73
	C147,345.4,159,345.4,166.2,341.2z"/>
<path class="st2" d="M302.1,86.1c-2.4-4.2-5.7-7.8-9.4-9.9l-126.5-73C158.9-1,147-1,139.7,3.2l-126.5,73C6,80.4,0,90.7,0,99.1v146.1
	c0,4.2,1.5,8.9,3.9,13.1L153,172.2L302.1,86.1z"/>
<g>
	<path class="st3" d="M153,274.2c-56.2,0-102-45.8-102-102s45.8-102,102-102c36.3,0,70.1,19.5,88.3,51l-44.1,25.5
		c-9.1-15.7-26-25.5-44.2-25.5c-28.1,0-51,22.9-51,51s22.9,51,51,51c18.2,0,35.1-9.8,44.2-25.5l44.1,25.5
		C223.1,254.6,189.3,274.2,153,274.2z"/>
</g>
<g>
	<polygon class="st3" points="255,166.5 243.7,166.5 243.7,155.2 232.3,155.2 232.3,166.5 221,166.5 221,177.8 232.3,177.8 
		232.3,189.2 243.7,189.2 243.7,177.8 255,177.8 	"/>
</g>
<g>
	<polygon class="st3" points="297.5,166.5 286.2,166.5 286.2,155.2 274.8,155.2 274.8,166.5 263.5,166.5 263.5,177.8 274.8,177.8 
		274.8,189.2 286.2,189.2 286.2,177.8 297.5,177.8 	"/>
</g>
<g>
	<g>
		<path class="st3" d="M357.3,138.9l19.4-67.3h13.7l19.4,67.3H400l-16-59.1h-0.9l-15.9,59.1H357.3z M366.3,122.6v-9h34.1v9H366.3z"
			/>
		<path class="st3" d="M416.7,76.1v-8.2h15.6v8.2H416.7z M447.9,139.9c-5.8,0-10-1.6-12.6-4.7c-2.6-3.2-3.9-8.2-3.9-15.2V67.9h10
			v51.6c0,2.7,0.3,4.8,0.8,6.5s1.5,2.9,3,3.7s3.6,1.2,6.5,1.2c2.6,0,6-0.6,10-1.8l1.1,8.8c-2.6,0.7-5,1.2-7.4,1.5
			C453.2,139.7,450.6,139.9,447.9,139.9z"/>
		<path class="st3" d="M493.5,139.9c-6.6,0-11.5-2.2-14.9-6.5s-5.1-10.7-5.1-19.1c0-8.7,1.7-15.3,5.1-19.8c3.4-4.5,8.4-6.7,14.9-6.7
			c3.9,0,7.1,0.9,9.5,2.7c2.4,1.8,3.9,4.2,4.3,7.4h3.9l-3.4,14.3c0-5.2-1-9.1-3.1-11.8c-2-2.7-5-4-9-4s-7.1,1.5-9.2,4.5
			s-3.1,7.5-3.1,13.5c0,5.6,1,9.9,3.1,12.7c2.1,2.9,5.1,4.3,9.2,4.3c3.9,0,6.9-1.3,9-4c2-2.7,3.1-6.6,3.1-11.8l3.4,14.3h-4.4
			c-0.3,3.2-1.7,5.6-4,7.4S497.3,139.9,493.5,139.9z M477.5,161.6l-0.5-9.2l16.1-0.5c5.1-0.2,8.8-1.6,11.1-4.2
			c2.3-2.7,3.5-6.6,3.5-11.7V99.3l0.9-10.6h9.1v45.8c0,8.9-2,15.5-6.1,19.8s-10.6,6.5-19.5,6.8L477.5,161.6z"/>
		<path class="st3" d="M554.1,139.9c-6.9,0-12.3-2.3-16.2-6.8s-5.8-11-5.8-19.2c0-8.3,1.9-14.7,5.8-19.3c3.9-4.5,9.3-6.8,16.2-6.8
			c7,0,12.4,2.3,16.2,6.8s5.8,10.9,5.8,19.3c0,8.3-1.9,14.7-5.8,19.2C566.5,137.6,561.1,139.9,554.1,139.9z M554.1,130.9
			c3.7,0,6.5-1.5,8.5-4.5s3-7.2,3-12.6c0-5.5-1-9.7-3-12.6c-2-3-4.9-4.4-8.5-4.4s-6.5,1.5-8.5,4.4c-2,3-3,7.2-3,12.6s1,9.6,3,12.6
			S550.4,130.9,554.1,130.9z"/>
		<path class="st3" d="M586.3,138.9v-8.2h33.5v8.2H586.3z M588.2,97v-8.2H605l0.9,8.2H588.2z M597.5,138.9V88.7h8.1l1.9,14.4v35.8
			H597.5z M607.6,117.3l-2.9-15.7h3.9c0.6-9.2,5.2-13.8,13.8-13.8c5.2,0,8.9,1.5,11.3,4.5c2.3,3,3.5,7.8,3.5,14.4h-9.9
			c0-3.7-0.5-6.3-1.6-7.9s-2.9-2.4-5.3-2.4c-4.3,0-7.4,1.8-9.5,5.5C608.6,105.4,607.6,110.6,607.6,117.3z"/>
		<path class="st3" d="M647,138.9v-8.2h20v8.2H647z M649.8,97v-8.2h26.3V97H649.8z M670.8,80.8c-1.9,0-3.6-0.7-5-2.1s-2.1-3-2.1-4.9
			c0-2,0.7-3.6,2.1-5c1.4-1.4,3-2,5-2s3.6,0.7,5,2c1.4,1.4,2,3,2,5c0,1.9-0.7,3.6-2,4.9C674.4,80.1,672.7,80.8,670.8,80.8z
			 M666.1,138.9V91.6h10V139h-10V138.9z M675.2,138.9v-8.2h16.4v8.2H675.2z"/>
		<path class="st3" d="M699.5,97v-8.2H745V97H699.5z M712.1,115.3V73.6h10v41.7H712.1z M733.7,139.9c-7.6,0-13.1-1.6-16.5-4.7
			c-3.4-3.2-5.1-8.2-5.1-15.2v-8.5h10v8.1c0,4,1,6.9,2.9,8.7s5.1,2.7,9.6,2.7c1.6,0,3.3-0.1,5-0.3c1.8-0.2,3.8-0.4,6.1-0.7l1.1,8.8
			c-2.2,0.4-4.4,0.7-6.5,0.9C738.3,139.8,736.1,139.9,733.7,139.9z"/>
		<path class="st3" d="M761,138.9v-71h10v71H761z M791.9,138.9v-32.7c0-3.2-0.8-5.6-2.4-7.4c-1.6-1.7-3.8-2.6-6.6-2.6
			c-7.9,0-11.8,4.8-11.8,14.4l-2.9-12.9h3.9c0.3-3.4,1.5-5.9,3.7-7.6s5.4-2.5,9.6-2.5c5.3,0,9.4,1.6,12.3,4.8s4.4,7.8,4.4,13.6v32.7
			h-10.2V138.9z"/>
		<path class="st3" d="M815.2,138.9V88.7h8.9l1.1,10.6v39.6H815.2z M834.1,138.9V99.6c0-2.8-1.3-4.3-4-4.3c-3.2,0-4.8,2.3-4.8,6.8
			l-2.9-7.2h3.2c0.4-4.8,3.3-7.2,8.6-7.2c2.6,0,4.7,0.9,6.2,2.7c1.5,1.8,2.2,4.5,2.2,8.2v40.3H834.1z M851.4,138.9v-38.4
			c0-3.5-1.3-5.2-3.9-5.2c-3.3,0-4.9,2.3-4.9,6.8l-3.4-7.2h3.9c0.2-2,0.9-3.6,2.3-5.1c1.4-1.4,3.4-2.1,6.1-2.1c3.5,0,6,0.9,7.6,2.8
			s2.4,4.9,2.4,9v39.3L851.4,138.9L851.4,138.9z"/>
		<path class="st3" d="M891.3,139.9c-3.8,0-7-0.1-9.7-0.3s-5.2-0.6-7.4-1.1l1.1-9.1c3.3,0.5,6.2,0.9,8.8,1.1
			c2.5,0.3,4.9,0.4,7.2,0.4c5.1,0,8.8-0.5,11.1-1.5s3.4-2.6,3.4-4.8c0-1.5-0.4-2.6-1.2-3.4c-0.8-0.7-2-1.3-3.7-1.7l-11.6-2.9
			c-5-1.3-8.6-2.8-10.9-4.7c-2.3-1.9-3.5-4.7-3.5-8.5c0-5.5,2.1-9.5,6.3-11.9c4.2-2.5,11-3.7,20.4-3.7c2.4,0,4.7,0.1,6.8,0.2
			s4.3,0.4,6.5,0.7l-1,8.7c-2.6-0.3-4.8-0.4-6.8-0.5s-3.9-0.1-5.7-0.1c-5.6,0-9.7,0.5-12.2,1.4c-2.5,1-3.8,2.5-3.8,4.7
			c0,1.5,0.5,2.5,1.6,3.1c1,0.6,2.6,1.2,4.8,1.8l9.3,2.3c5.3,1.3,9.1,3,11.6,5.1c2.4,2.1,3.7,5.2,3.7,9.2c0,5.4-2,9.3-5.9,11.8
			C906.3,138.7,900,139.9,891.3,139.9z"/>
		<path class="st3" d="M362.9,255.4v-71h10v70.2L362.9,255.4z M376.4,256.3c-2.3,0-4.5-0.1-6.7-0.3s-4.5-0.4-6.7-0.7l3.9-9.2
			c1.7,0.8,3.5,1.3,5.5,1.4c2,0.1,4,0.2,6,0.2c6,0,10.7-1.8,14-5.4c3.3-3.6,5-8.8,5-15.4c0-4.5-1-8.1-3-10.5c-2-2.5-4.9-3.7-8.5-3.7
			c-8.5,0-12.8,4.8-12.8,14.4l-2.9-12.9h3.9c0.5-6.7,4.6-10,12.3-10c6.7,0,11.9,2,15.5,5.9c3.7,3.9,5.5,9.6,5.5,16.8
			c0,9.3-2.7,16.5-8.1,21.7C393.8,253.7,386.2,256.3,376.4,256.3z"/>
		<path class="st3" d="M434.6,255.4l-20-50.2H425l16.4,42.6h1.5v7.6H434.6z M415.6,278.1l-0.5-9l7.9-0.9c3.3-0.4,6.1-1.3,8.5-2.7
			c2.4-1.4,4.4-3.5,6-6.2s3.1-6.3,4.4-10.7l12.5-43.4h10.4L450.3,251c-1.9,6-4,10.8-6.4,14.5s-5.1,6.4-8.3,8.2
			c-3.2,1.8-7,3-11.5,3.5L415.6,278.1z"/>
		<path class="st3" d="M533.3,255.4v-67.3h9.5v67.3H533.3z M538.9,222.3v-4.6h19.7v4.6H538.9z M542.1,219.6v-4.3h11.4
			c3.6,0,6.3-0.8,8.3-2.4c2-1.6,3-3.9,3-6.8c0-2.9-1-5.1-3.1-6.7c-2.1-1.5-5-2.3-8.8-2.3h-10.5l-1.1-9h12.1c6.8,0,12.1,1.5,15.8,4.4
			c3.7,3,5.6,7.2,5.6,12.6c0,4.6-1.8,8.2-5.3,10.7s-8.6,3.8-15.1,3.8H542.1z M542.1,255.4v-9h14.2c4.2,0,7.4-1,9.7-2.9
			s3.5-4.6,3.5-8c0-3.5-1.2-6.3-3.6-8.2c-2.4-1.9-5.8-2.9-10.2-2.9h-13.4l-1.1-4.3H558c6.8,0,12.1,1.5,15.8,4.4s5.6,7.1,5.6,12.5
			c0,5.9-1.8,10.4-5.3,13.6c-3.5,3.2-8.6,4.8-15.1,4.8L542.1,255.4L542.1,255.4z"/>
		<path class="st3" d="M611,256.3c-6.9,0-12.3-2.3-16.2-6.8s-5.8-11-5.8-19.2c0-8.3,1.9-14.7,5.8-19.3c3.9-4.5,9.3-6.8,16.2-6.8
			c7,0,12.4,2.3,16.2,6.8s5.8,10.9,5.8,19.3c0,8.3-1.9,14.7-5.8,19.2C623.3,254,617.9,256.3,611,256.3z M611,247.3
			c3.7,0,6.5-1.5,8.5-4.5s3-7.2,3-12.6c0-5.5-1-9.7-3-12.6c-2-3-4.9-4.4-8.5-4.4s-6.5,1.5-8.5,4.4c-2,3-3,7.2-3,12.6
			c0,5.4,1,9.6,3,12.6C604.4,245.8,607.3,247.3,611,247.3z"/>
		<path class="st3" d="M647.1,255.4v-71h10v70.2L647.1,255.4z M660.6,256.3c-2.3,0-4.5-0.1-6.7-0.3s-4.5-0.4-6.7-0.7l3.9-9.2
			c1.7,0.8,3.5,1.3,5.5,1.4c2,0.1,4,0.2,6,0.2c6,0,10.7-1.8,14-5.4c3.3-3.6,4.9-8.8,4.9-15.4c0-4.5-1-8.1-3-10.5
			c-2-2.5-4.9-3.7-8.5-3.7c-8.5,0-12.8,4.8-12.8,14.4l-2.9-12.9h3.9c0.5-6.7,4.6-10,12.3-10c6.7,0,11.9,2,15.5,5.9
			c3.7,3.9,5.5,9.6,5.5,16.8c0,9.3-2.7,16.5-8.1,21.7C678,253.7,670.4,256.3,660.6,256.3z"/>
		<path class="st3" d="M729.5,256.3c-8.6,0-15.2-2.2-19.8-6.8c-4.7-4.5-7-11-7-19.4c0-8.2,2-14.6,5.9-19.1s9.5-6.8,16.7-6.8
			c6.8,0,12,2.1,15.7,6.2c3.7,4.1,5.6,10.1,5.6,17.9c0,2.3-0.1,4.5-0.3,6.4h-35.2V227h26.4c0-4.5-1.1-8-3.2-10.4
			c-2.1-2.4-5.1-3.6-8.9-3.6c-4.3,0-7.6,1.5-9.9,4.4c-2.4,2.9-3.5,7-3.5,12.3c0,5.8,1.6,10.2,4.9,13.3c3.2,3,7.8,4.5,13.8,4.5
			c2.1,0,4.1-0.1,6.2-0.4c2-0.2,4.1-0.6,6.2-1l1.2,8.8c-3,0.6-5.7,0.9-8.1,1.1C733.5,256.2,731.4,256.3,729.5,256.3z"/>
		<path class="st3" d="M831.8,256.3c-5.8,0-10.4-1.6-13.9-4.7c-3.5-3.1-5.3-7.3-5.3-12.5c0-5.1,1.6-9.3,4.7-12.5
			c3.1-3.3,7.6-5.3,13.3-6.2l5.2,5.8c-4.4,0.9-7.7,2.4-10.1,4.5s-3.6,4.8-3.6,7.9c0,2.7,1,4.9,3,6.5c2,1.7,4.6,2.5,7.8,2.5
			c6.3,0,11.1-2.5,14.5-7.4c3.4-5,5.1-12,5.1-21.1h9.1c0,11.8-2.6,21-7.8,27.5C848.6,253.1,841.3,256.3,831.8,256.3z M855.5,255.4
			L831,228.5c-4.1-4.5-7.1-8.6-8.9-12.1c-1.8-3.6-2.7-7-2.7-10.4c0-6,1.7-10.7,5-13.9s8.1-4.9,14.3-4.9l0.2,8.7
			c-2.9,0-5.1,0.9-6.7,2.7c-1.6,1.8-2.4,4.3-2.4,7.6c0,2.3,0.6,4.6,1.8,6.8s2.9,4.5,5,7l31.2,35.5h-12.3V255.4z M846.7,202.2
			c0-2.1-0.7-3.6-2-4.7c-1.3-1.1-3.2-1.6-5.7-1.6l-0.2-8.7c5.7,0,10.1,1.3,13.3,3.9c3.1,2.6,4.7,6.3,4.7,11.1H846.7z"/>
		<path class="st3" d="M959,256.3c-20.9,0-31.4-11.6-31.4-34.7c0-11,2.6-19.4,7.9-25.5c5.3-6,12.7-9,22.3-9c4.6,0,8.7,0.7,12.1,2.2
			c3.4,1.5,6,3.6,7.5,6.3l-7,7c-1.4-2.1-3.2-3.8-5.4-5s-4.6-1.8-7.1-1.8c-6.1,0-11,2.2-14.7,6.6c-3.7,4.4-5.5,10.6-5.5,18.7
			c0,17.6,7.6,26.4,22.8,26.4c4.6,0,9.1-0.9,13.5-2.8l2.2,8.3C970.8,255.2,965.1,256.3,959,256.3z"/>
		<path class="st3" d="M988.4,255.4v-71h10v71H988.4z M1019.3,255.4v-32.7c0-3.2-0.8-5.6-2.4-7.4c-1.6-1.7-3.8-2.6-6.6-2.6
			c-7.9,0-11.8,4.8-11.8,14.4l-2.9-12.9h3.9c0.3-3.4,1.5-5.9,3.7-7.6s5.4-2.5,9.6-2.5c5.3,0,9.4,1.6,12.3,4.8
			c2.9,3.2,4.4,7.8,4.4,13.6v32.7h-10.2V255.4z"/>
		<path class="st3" d="M1044.8,255.4v-8.2h20.1v8.2H1044.8z M1047.7,213.4v-8.2h26.3v8.2H1047.7z M1068.7,197.2
			c-1.9,0-3.6-0.7-5-2.1c-1.4-1.4-2.1-3-2.1-5s0.7-3.6,2.1-5s3-2,5-2s3.6,0.7,5,2c1.4,1.4,2,3,2,5c0,1.9-0.7,3.6-2,5
			C1072.3,196.5,1070.6,197.2,1068.7,197.2z M1064,255.4V208h10v47.4H1064z M1073.1,255.4v-8.2h16.4v8.2H1073.1z"/>
		<path class="st3" d="M1118.6,256.3c-3.8,0-7-0.1-9.7-0.3s-5.2-0.6-7.4-1.1l1.1-9.1c3.3,0.5,6.2,0.9,8.8,1.1
			c2.5,0.3,4.9,0.4,7.2,0.4c5.1,0,8.8-0.5,11.1-1.5c2.3-1,3.4-2.6,3.4-4.8c0-1.5-0.4-2.6-1.2-3.4c-0.8-0.7-2-1.3-3.7-1.7l-11.6-2.9
			c-5-1.3-8.6-2.8-10.9-4.7s-3.5-4.7-3.5-8.5c0-5.5,2.1-9.5,6.3-11.9c4.2-2.5,11-3.7,20.4-3.7c2.4,0,4.7,0.1,6.8,0.2
			c2.1,0.1,4.3,0.4,6.5,0.7l-1,8.7c-2.6-0.3-4.8-0.4-6.8-0.5s-3.9-0.1-5.7-0.1c-5.6,0-9.7,0.5-12.2,1.4c-2.5,1-3.8,2.5-3.8,4.7
			c0,1.5,0.5,2.5,1.6,3.2s2.6,1.2,4.8,1.8l9.3,2.3c5.3,1.3,9.1,3,11.6,5.1c2.4,2.1,3.7,5.2,3.7,9.2c0,5.4-2,9.3-5.9,11.8
			C1133.7,255.1,1127.3,256.3,1118.6,256.3z"/>
		<path class="st3" d="M1154.2,213.4v-8.2h45.5v8.2H1154.2z M1166.8,231.7V190h10v41.7H1166.8z M1188.4,256.3
			c-7.6,0-13.1-1.6-16.5-4.7c-3.4-3.2-5.1-8.2-5.1-15.2v-8.5h10v8.1c0,4,1,6.9,2.9,8.7s5.1,2.7,9.6,2.7c1.6,0,3.3-0.1,5-0.3
			c1.8-0.2,3.8-0.4,6.1-0.7l1.1,8.8c-2.2,0.4-4.4,0.7-6.5,0.9C1193,256.2,1190.8,256.3,1188.4,256.3z"/>
		<path class="st3" d="M1236.2,256.3c-6.9,0-12.3-2.3-16.2-6.8c-3.9-4.5-5.8-11-5.8-19.2c0-8.3,1.9-14.7,5.8-19.3
			c3.9-4.5,9.3-6.8,16.2-6.8c7,0,12.4,2.3,16.2,6.8c3.8,4.5,5.8,10.9,5.8,19.3c0,8.3-1.9,14.7-5.8,19.2
			C1248.6,254,1243.2,256.3,1236.2,256.3z M1236.2,247.3c3.7,0,6.5-1.5,8.5-4.5s3-7.2,3-12.6c0-5.5-1-9.7-3-12.6
			c-2-3-4.9-4.4-8.5-4.4s-6.5,1.5-8.5,4.4c-2,3-3,7.2-3,12.6c0,5.4,1,9.6,3,12.6C1229.6,245.8,1232.5,247.3,1236.2,247.3z"/>
		<path class="st3" d="M1269.2,192.5v-8.2h15.6v8.2H1269.2z M1300.5,256.3c-5.8,0-10-1.6-12.6-4.7c-2.6-3.2-3.9-8.2-3.9-15.2v-52.1
			h10v51.6c0,2.7,0.3,4.8,0.8,6.5s1.5,2.9,3,3.7s3.6,1.2,6.5,1.2c2.6,0,6-0.6,10-1.8l1.1,8.8c-2.6,0.7-5,1.2-7.4,1.5
			C1305.8,256.1,1303.2,256.3,1300.5,256.3z"/>
	</g>
</g>
</svg>
